# xmcd CD database file
#
# Track frame offsets:
#	150
#	14503
#	31763
#	44269
#	59390
#	73810
#	87091
#	99803
#	111725
#	126344
#
# Disc length: 1881 seconds
#
# Revision: 0
# Processed by: cddbd v1.5.2PL0 Copyright (c) Steve Scherf et al.
# Submitted via: CDex 1.70beta2
#
DISCID=8507570a
DTITLE=Karl Sapp - I Don't Drink No More......
DYEAR=2010
DGENRE=Country
TTITLE0=I Don't Drink No More
TTITLE1=Rusty Strings
TTITLE2=She Was Gone
TTITLE3=Life Time Away
TTITLE4=Cadillac Man
TTITLE5=Heartbreak
TTITLE6=Moonshiner's Daughter
TTITLE7=Let It Go
TTITLE8=You'll Love Again
TTITLE9=My Lady
EXTD=YEAR: 2010
EXTT0=
EXTT1=
EXTT2=
EXTT3=
EXTT4=
EXTT5=
EXTT6=
EXTT7=
EXTT8=
EXTT9=
PLAYORDER=
